<svg id="레이어_1" data-name="레이어 1" xmlns="http://www.w3.org/2000/svg" viewBox="0 0 34 34"><defs><style>.cls-1{fill:#727272;}</style></defs><path class="cls-1" d="M35,16.94v2.14c0,.15-.08.29-.1.43a16.58,16.58,0,0,1-5.59,11.15,16.42,16.42,0,0,1-12.75,4.27A16.34,16.34,0,0,1,5.27,29.25,16.47,16.47,0,0,1,1.12,16a16.27,16.27,0,0,1,6-11A16.52,16.52,0,0,1,22.2,1.55,16.27,16.27,0,0,1,30.88,7a16.36,16.36,0,0,1,3.75,7.74C34.77,15.44,34.88,16.19,35,16.94ZM18.38,34a13.25,13.25,0,0,0,3.93-.59,16.38,16.38,0,0,0,6.88-4c.31-.29.36-.52,0-.84a8.35,8.35,0,0,0-1.41-1.1A21.3,21.3,0,0,0,24.57,26,11.25,11.25,0,0,1,22.14,25a1.77,1.77,0,0,1-.84-1.55V21.79a1.1,1.1,0,0,1,.21-.68,6.35,6.35,0,0,0,1.33-3.59.68.68,0,0,1,.22-.57,3.33,3.33,0,0,0,1-2.72.64.64,0,0,0-.22-.62c-.34-.23-.29-.53-.24-.86a8.43,8.43,0,0,0-.11-3.43A3,3,0,0,0,21.4,6.94a15.66,15.66,0,0,0-4.2-.65,5.09,5.09,0,0,0-3.91,1.85,5.22,5.22,0,0,0-1,4.49c.07.4.17.76-.26,1a.48.48,0,0,0-.17.39,3.36,3.36,0,0,0,.92,2.81.87.87,0,0,1,.33.67A6.07,6.07,0,0,0,14.36,21a1.24,1.24,0,0,1,.31.7c0,.6,0,1.2,0,1.8a1.87,1.87,0,0,1-.9,1.48,5.08,5.08,0,0,1-.76.42c-1.44.62-3,1.06-4.35,1.81a8.68,8.68,0,0,0-1.89,1.35c-.29.3-.33.56,0,.86s.78.73,1.2,1.06A16.13,16.13,0,0,0,18.38,34Z" transform="translate(-1 -1)"/></svg>