<svg id="레이어_1" data-name="레이어 1" xmlns="http://www.w3.org/2000/svg" viewBox="0 0 92 47"><polygon points="15.25 46.99 0 46.99 0 0 4.28 0 4.28 43.34 15.25 43.34 15.25 46.99 15.25 46.99"/><path d="M45.25,45.15a3.28,3.28,0,0,1-.94,2.4,3.48,3.48,0,0,1-2.4.94H28.43a3.22,3.22,0,0,1-3.34-3.34V4.84A3.34,3.34,0,0,1,26,2.44a3.48,3.48,0,0,1,2.4-.94H41.8a3.28,3.28,0,0,1,2.4.94,2.91,2.91,0,0,1,.94,2.4l.11,40.31Zm-4.18-.31V5.16H29.27V44.84Z" transform="translate(-4 -1.5)"/><path d="M72.3,45.15a3.32,3.32,0,0,1-.94,2.4,3.49,3.49,0,0,1-2.41.94H56.42a3.1,3.1,0,0,1-3.34-3V5A3.32,3.32,0,0,1,54,2.54a3.53,3.53,0,0,1,2.4-.94H69a3.36,3.36,0,0,1,2.41.94A3.36,3.36,0,0,1,72.3,5v11H68V5.26H57.15V44.94H68V28.65H62.9V25.1h9.4Z" transform="translate(-4 -1.5)"/><polygon points="92 46.99 87.31 46.99 87.31 41.77 92 41.77 92 46.99 92 46.99"/></svg>