<svg id="레이어_1" data-name="레이어 1" xmlns="http://www.w3.org/2000/svg" viewBox="0 0 46 47.18"><defs><style>.cls-1{fill:#6da7ff;}</style></defs><path class="cls-1" d="M14.78,34.74c-1.1-1.19-.09-4.32.74-5.42a27.54,27.54,0,0,1,4.22-5,72.83,72.83,0,0,0,11.48-14,41.55,41.55,0,0,0,4-8.36c.09-.18.09-.46.37-.55C33.15,12.24,25.53,24.27,14.78,34.74Z" transform="translate(-2 -1.41)"/><path class="cls-1" d="M7.35,45.3l39.75-.09c1.2,0,1.2,1.19,0,1.19s-40.4-.64-40.4-.64Z" transform="translate(-2 -1.41)"/><path class="cls-1" d="M37.65,12.34,35.54,13.9l2-1a23.92,23.92,0,0,1-.92,3.3c-1.29,3.77-2.48,8.08-5.79,12.67-.37.46-.64.92-.92,1.29l-4.86,2.11,3.85-.83a10.75,10.75,0,0,1-3.85,3.13c-3,1.47-3.86.18-6.89,1.19C12.86,37.4,12.49,42,4.32,47.32c-1.38,1-2.48,1.47-2.3,1.19C9.46,41.63,33.24,19.68,35.54,2.42a16.83,16.83,0,0,1,2.29,8.08C37.74,11.14,37.74,11.69,37.65,12.34Z" transform="translate(-2 -1.41)"/></svg>