<svg id="arrowIcon" data-name="arrowIcon" xmlns="http://www.w3.org/2000/svg" viewBox="0 0 52.21 100"><path d="M82.09,56.73a2.22,2.22,0,0,1-.63,1.61L33.6,106.19a2.23,2.23,0,0,1-3-.06,2.21,2.21,0,0,1-.06-3.13L76.76,56.76,30.46,10.45a2.22,2.22,0,0,1,1.66-3.7,2.21,2.21,0,0,1,1.54.62L81.45,55.16A2.22,2.22,0,0,1,82.09,56.73Z" transform="translate(-29.88 -6.75)"/><path d="M82.09,56.73a2.22,2.22,0,0,1-.63,1.61L33.6,106.19a2.23,2.23,0,0,1-3-.06,2.21,2.21,0,0,1-.06-3.13L76.76,56.76,30.46,10.45a2.22,2.22,0,0,1,1.66-3.7,2.21,2.21,0,0,1,1.54.62L81.45,55.16A2.22,2.22,0,0,1,82.09,56.73Z" transform="translate(-29.88 -6.75)"/><path d="M82.09,56.73a2.22,2.22,0,0,1-.63,1.61L33.6,106.19a2.23,2.23,0,0,1-3-.06,2.21,2.21,0,0,1-.06-3.13L76.76,56.76,30.46,10.45a2.22,2.22,0,0,1,1.66-3.7,2.21,2.21,0,0,1,1.54.62L81.45,55.16A2.22,2.22,0,0,1,82.09,56.73Z" transform="translate(-29.88 -6.75)"/></svg>