<!-- <svg id="레이어_1" data-name="레이어 1" xmlns="http://www.w3.org/2000/svg" viewBox="0 0 46 47.18"><defs><style>.cls-1{fill:#6da7ff;}</style></defs><path class="cls-1" d="M14.78,34.74c-1.1-1.19-.09-4.32.74-5.42a27.54,27.54,0,0,1,4.22-5,72.83,72.83,0,0,0,11.48-14,41.55,41.55,0,0,0,4-8.36c.09-.18.09-.46.37-.55C33.15,12.24,25.53,24.27,14.78,34.74Z" transform="translate(-2 -1.41)"/><path class="cls-1" d="M7.35,45.3l39.75-.09c1.2,0,1.2,1.19,0,1.19s-40.4-.64-40.4-.64Z" transform="translate(-2 -1.41)"/><path class="cls-1" d="M37.65,12.34,35.54,13.9l2-1a23.92,23.92,0,0,1-.92,3.3c-1.29,3.77-2.48,8.08-5.79,12.67-.37.46-.64.92-.92,1.29l-4.86,2.11,3.85-.83a10.75,10.75,0,0,1-3.85,3.13c-3,1.47-3.86.18-6.89,1.19C12.86,37.4,12.49,42,4.32,47.32c-1.38,1-2.48,1.47-2.3,1.19C9.46,41.63,33.24,19.68,35.54,2.42a16.83,16.83,0,0,1,2.29,8.08C37.74,11.14,37.74,11.69,37.65,12.34Z" transform="translate(-2 -1.41)"/></svg> -->



<svg id="레이어_1" data-name="레이어 1" xmlns="http://www.w3.org/2000/svg" viewBox="0 0 112.78 45"><defs><style>.cls-1{fill:#a7496d;}.cls-2{fill:#fefdfd;}.cls-3{fill:#fefefe;}.cls-4{fill:#a74a6e;}.cls-5{fill:#fdfdfd;}.cls-6{fill:#a84b6f;}.cls-7{fill:#fdfcfc;}.cls-8{fill:#f8f3f5;}.cls-9{fill:#fbf8f9;}.cls-10{fill:#ab5173;}.cls-11{fill:#fbf7f9;}.cls-12{fill:#b2607f;}</style></defs><path class="cls-1" d="M16.09,26c-6.17-.07-10.32-2.81-11.95-7.89A12.19,12.19,0,0,1,12.79,2.82,11.66,11.66,0,0,1,27,12.44a13.72,13.72,0,0,1-.35,6.24C25.23,23.51,21.56,26,16.09,26Z" transform="translate(-3.61 -2.5)"/><path class="cls-2" d="M15.79,25.37c-6.91,0-11.72-4.56-11.54-11C4.45,7.06,12.14,1.24,18.7,3.45c7,2.36,10.16,11.81,6,17.9C22.82,24.07,20,25.36,15.79,25.37Z" transform="translate(-3.61 -2.5)"/><path class="cls-1" d="M16.24,23.82C10.09,23.79,5.5,19.6,5.53,14A10.23,10.23,0,0,1,15.77,4.11a10.14,10.14,0,0,1,9.87,10.54C25.59,20.09,21.73,23.85,16.24,23.82Z" transform="translate(-3.61 -2.5)"/><path class="cls-3" d="M6.37,14a9.4,9.4,0,0,1,9.48-9.28,9.52,9.52,0,0,1,9.22,9.86c-.05,5.15-3.81,8.54-9.48,8.52A9,9,0,0,1,6.37,14Z" transform="translate(-3.61 -2.5)"/><path class="cls-4" d="M15.89,21.09c-4.37,0-7.54-2.58-8.08-6.5-.43-3.14,2-6.93,5.27-8.27,3-1.23,5.91-.26,8,2.72a9.1,9.1,0,0,1,2.05,6.09C22.88,18.81,20,21.11,15.89,21.09Z" transform="translate(-3.61 -2.5)"/><path class="cls-5" d="M22.49,14.44c0,3.64-2.73,6.11-6.56,6-4.28-.07-7.69-3-7.6-6.52.09-3.75,3.67-7.38,7.21-7.32C19.26,6.72,22.54,10.4,22.49,14.44Z" transform="translate(-3.61 -2.5)"/><path class="cls-6" d="M15.92,19.15c-3.48,0-6.42-2.71-6.38-5.78,0-2.8,3.14-5.71,6-5.63S21,11.12,21,14.5C21,17.32,18.94,19.19,15.92,19.15Z" transform="translate(-3.61 -2.5)"/><path class="cls-7" d="M15.69,18.42a5.64,5.64,0,0,1-5-3.14,4.53,4.53,0,0,1,1.55-5.81,4.45,4.45,0,0,1,5.89.18,7.39,7.39,0,0,1,2.12,3.21C21.3,16.07,19.58,18.43,15.69,18.42Z" transform="translate(-3.61 -2.5)"/><path class="cls-6" d="M16.09,17.35c-2.59,0-4.83-2-4.78-4.11,0-1.86,2.2-3.53,4.55-3.5,2,0,3.66,2.14,3.61,4.67C19.44,16.29,18.19,17.37,16.09,17.35Z" transform="translate(-3.61 -2.5)"/><path class="cls-8" d="M18.18,12.19a3.12,3.12,0,0,1-.05,3.72,3.18,3.18,0,0,1-3.55.76A3.72,3.72,0,0,1,12,13.54a1.83,1.83,0,0,1,.79-1.85.47.47,0,0,1,.38.39,3.41,3.41,0,0,0,1,3,1.94,1.94,0,0,0,2.29.6A2.42,2.42,0,0,0,18,13.42a3.53,3.53,0,0,1,0-.92A.63.63,0,0,1,18.18,12.19Z" transform="translate(-3.61 -2.5)"/><path class="cls-9" d="M18.18,12.19l0,.31c-1.8.62-3.45-.08-5.13-.58l-.22-.23C15,9.76,17.05,9.94,18.18,12.19Z" transform="translate(-3.61 -2.5)"/><path class="cls-10" d="M13,11.92c.25-.08.6-.3.73-.21,1.36.94,3,.39,4.4.79A2.75,2.75,0,0,1,17,15.87a2.16,2.16,0,0,1-2.72-.16A3.43,3.43,0,0,1,13,11.92Z" transform="translate(-3.61 -2.5)"/><path class="cls-11" d="M13.55,12.93c0-.19,0-.64.56-.42a5.83,5.83,0,0,0,2.52.23c1,0,1.17.58.95,1.33-.29,1-.86,1.83-2,1.8C14.68,15.85,13.54,14.19,13.55,12.93Z" transform="translate(-3.61 -2.5)"/><path class="cls-12" d="M15.59,13.53c.52.08,1,.18.93.78s-.39.95-1,.83a1,1,0,0,1-.89-1C14.65,13.46,15.23,13.6,15.59,13.53Z" transform="translate(-3.61 -2.5)"/><path class="cls-1" d="M28.12,47.5c-5.47-.06-9.14-2.49-10.58-7A10.79,10.79,0,0,1,25.2,27a10.33,10.33,0,0,1,12.62,8.52,12.12,12.12,0,0,1-.31,5.52C36.22,45.34,33,47.56,28.12,47.5Z" transform="translate(-3.61 -2.5)"/><path class="cls-2" d="M27.86,47c-6.13,0-10.38-4-10.23-9.73.18-6.49,7-11.64,12.81-9.68,6.2,2.08,9,10.46,5.3,15.86C34.09,45.84,31.56,47,27.86,47Z" transform="translate(-3.61 -2.5)"/><path class="cls-1" d="M28.26,45.61c-5.45,0-9.52-3.74-9.49-8.66a8.91,8.91,0,1,1,17.81.54A7.87,7.87,0,0,1,28.26,45.61Z" transform="translate(-3.61 -2.5)"/><path class="cls-3" d="M19.51,36.94a8.33,8.33,0,0,1,8.4-8.22,8.43,8.43,0,0,1,8.17,8.73C36,42,32.7,45,27.68,45A8,8,0,0,1,19.51,36.94Z" transform="translate(-3.61 -2.5)"/><path class="cls-4" d="M28,43.19c-3.87,0-6.69-2.28-7.16-5.76-.38-2.77,1.77-6.14,4.67-7.32,2.66-1.09,5.24-.23,7.13,2.4a8.14,8.14,0,0,1,1.81,5.41C34.14,41.17,31.59,43.21,28,43.19Z" transform="translate(-3.61 -2.5)"/><path class="cls-5" d="M33.8,37.3c0,3.23-2.42,5.42-5.82,5.36-3.79-.06-6.81-2.65-6.73-5.78.08-3.32,3.25-6.53,6.39-6.48S33.84,33.72,33.8,37.3Z" transform="translate(-3.61 -2.5)"/><path class="cls-6" d="M28,41.48c-3.08,0-5.68-2.41-5.64-5.12a5.61,5.61,0,0,1,5.3-5c2.5.07,4.87,3,4.86,6C32.47,39.85,30.65,41.51,28,41.48Z" transform="translate(-3.61 -2.5)"/><path class="cls-7" d="M27.77,40.83a5,5,0,0,1-4.43-2.78,4,4,0,0,1,1.37-5.16,4,4,0,0,1,5.23.17,6.55,6.55,0,0,1,1.87,2.84C32.74,38.74,31.22,40.83,27.77,40.83Z" transform="translate(-3.61 -2.5)"/><path class="cls-6" d="M28.12,39.88c-2.29,0-4.27-1.73-4.23-3.64,0-1.65,1.95-3.13,4-3.11,1.79,0,3.25,1.9,3.2,4.14C31.09,38.94,30,39.9,28.12,39.88Z" transform="translate(-3.61 -2.5)"/><path class="cls-8" d="M30,35.31a2.78,2.78,0,0,1,0,3.3,2.84,2.84,0,0,1-3.16.67,3.29,3.29,0,0,1-2.26-2.78,1.58,1.58,0,0,1,.7-1.63.41.41,0,0,1,.34.34,3,3,0,0,0,.88,2.69,1.69,1.69,0,0,0,2,.53,2.12,2.12,0,0,0,1.35-2,3.2,3.2,0,0,1,0-.82A.54.54,0,0,1,30,35.31Z" transform="translate(-3.61 -2.5)"/><path class="cls-9" d="M30,35.31l0,.27c-1.59.56-3.06-.06-4.54-.51l-.2-.2C27.17,33.15,29,33.32,30,35.31Z" transform="translate(-3.61 -2.5)"/><path class="cls-10" d="M25.42,35.07c.22-.07.53-.27.64-.19,1.21.83,2.63.35,3.9.7a2.46,2.46,0,0,1-1.05,3,1.92,1.92,0,0,1-2.41-.14A3,3,0,0,1,25.42,35.07Z" transform="translate(-3.61 -2.5)"/><path class="cls-11" d="M25.88,36c0-.17,0-.56.49-.37a5.29,5.29,0,0,0,2.23.21c.86,0,1,.51.84,1.18-.26.88-.75,1.62-1.8,1.59C26.87,38.55,25.87,37.08,25.88,36Z" transform="translate(-3.61 -2.5)"/><path class="cls-12" d="M27.68,36.5c.47.07.9.16.83.69s-.35.84-.88.73a.92.92,0,0,1-.79-.91C26.85,36.43,27.37,36.55,27.68,36.5Z" transform="translate(-3.61 -2.5)"/><path class="cls-1" d="M37.44,13.41v1.81l2.36.07,1.58,0a1.89,1.89,0,0,1,1.36.4,1.85,1.85,0,0,1,.36,1.41,3.76,3.76,0,0,1-.34,1.56,1.24,1.24,0,0,1-1.15.61c-.36,0-1,.05-1.77.05s-1.66,0-2.53-.05c0,.88-.06,1.68-.09,2.42s-.08,1.37-.14,1.88a2.23,2.23,0,0,1-.75,1.72,2.52,2.52,0,0,1-1.56.36,2.79,2.79,0,0,1-1.54-.45,2.26,2.26,0,0,1-.58-1.76c0-.7,0-1.7,0-3s0-2.79,0-4.42.05-3.35.06-5.16,0-3.56.07-5.25a2.35,2.35,0,0,1,.54-1.74,2.73,2.73,0,0,1,1.9-.52,2.08,2.08,0,0,1,2.36,2.4c0,.27,0,.55,0,.86s0,.6,0,.9c.79-.06,1.56-.1,2.31-.11s1.29,0,1.59-.07a1.78,1.78,0,0,1,1.35.34,2,2,0,0,1,.46,1.38A3.3,3.3,0,0,1,43,10.64a1.32,1.32,0,0,1-1.16.68,15.32,15.32,0,0,1-1.78.14l-2.56.09C37.49,12.15,37.47,12.77,37.44,13.41Z" transform="translate(-3.61 -2.5)"/><path class="cls-1" d="M65.15,18.34Q65,23.28,65,28.12l1.63-.07c.52,0,1,0,1.36-.07a1.91,1.91,0,0,1,1.34.32,2.12,2.12,0,0,1,.52,1.45c.12,1.33-.44,2.05-1.68,2.17-.69.06-1.62.13-2.78.2l-3.82.25-4.35.28c-1.51.09-3,.17-4.37.27L49,33.17c-1.16.07-2.1.13-2.83.15-1.14.09-1.78-.54-1.9-1.9a2.21,2.21,0,0,1,.34-1.6,1.52,1.52,0,0,1,1.11-.57l1.65-.09c.62,0,1.29-.08,2-.14q-.09-4.93-.18-10T49,9.06l-1.77.07-1.4,0a1.56,1.56,0,0,1-1.29-.45A2.3,2.3,0,0,1,44,7.16a2.27,2.27,0,0,1,.38-1.59A1.56,1.56,0,0,1,45.5,5l3-.09,3.89-.09,4.32-.09L61,4.69l3.84,0,2.95,0A1.75,1.75,0,0,1,69.15,5a2.14,2.14,0,0,1,.48,1.49c0,1.36-.56,2-1.77,2.08-.33,0-.71.06-1.15.07s-.92,0-1.43,0Q65.24,13.41,65.15,18.34ZM54,18.84q0,5,0,9.87c1.05-.06,2.12-.12,3.19-.16l3.14-.16q0-4.89,0-9.85t.07-9.75l-3.23.09L53.88,9C53.93,12.2,54,15.49,54,18.84ZM77.6,11.28c0,1.87-.08,3.77-.14,5.7.81,0,1.6,0,2.37,0h1.61a1.87,1.87,0,0,1,1.36.4,2,2,0,0,1,.41,1.41,3.7,3.7,0,0,1-.3,1.61,1.23,1.23,0,0,1-1.15.65c-.36,0-1,0-1.83.07l-2.61,0q-.18,4-.38,7.81t-.43,7.31A2.41,2.41,0,0,1,75.78,38a2.14,2.14,0,0,1-1.58.41,1.93,1.93,0,0,1-1.47-.73,3.48,3.48,0,0,1-.48-2.08q0-15.12.55-30a2.36,2.36,0,0,1,.61-1.74,2.79,2.79,0,0,1,1.92-.52,2.1,2.1,0,0,1,2.35,2.4C77.66,7.57,77.62,9.41,77.6,11.28Z" transform="translate(-3.61 -2.5)"/><path class="cls-1" d="M114,26.08a1.94,1.94,0,0,1-.73,1.5,2.35,2.35,0,0,1-1.63.36c-1.32-.09-2-.73-2-1.9,0-.37,0-1,0-1.84s.06-1.85.09-3,.07-2.32.11-3.57S110,15.18,110,14s.07-2.2.1-3.13,0-1.6,0-2.06c-.75,0-1.72.07-2.9.09s-2.46.06-3.87.07L99,9l-4.41,0-3.94,0h-3c-1.15,0-1.72-.68-1.72-2a1.78,1.78,0,0,1,.52-1.4,1.92,1.92,0,0,1,1.16-.5c1-.06,2.19-.12,3.6-.16s2.91-.08,4.52-.11l5-.09c1.69,0,3.33-.06,4.91-.07l4.44,0,3.46,0a1.49,1.49,0,0,1,1.22.41A2.15,2.15,0,0,1,115,6.39c0,.6,0,1.43-.07,2.49s-.1,2.22-.16,3.49-.12,2.58-.18,3.93-.13,2.67-.2,3.94-.15,2.42-.23,3.44S114.05,25.51,114,26.08ZM115.93,36a1.89,1.89,0,0,1-1.22.59q-6.46.49-13.24.86t-13.74.54c-1.14,0-1.72-.69-1.72-2.08a2.32,2.32,0,0,1,.41-1.49,1.76,1.76,0,0,1,1.36-.55l4.28-.18,4.27-.18c0-2.2,0-4.44,0-6.7s0-4.41,0-6.43a2.24,2.24,0,0,1,.59-1.74,2.92,2.92,0,0,1,2-.52,2.1,2.1,0,0,1,2.35,2.4c0,1.93.06,4,.07,6.2s0,4.39,0,6.56l6.92-.34q3.41-.15,6.61-.24a1.28,1.28,0,0,1,1.23.47,2.29,2.29,0,0,1,.36,1.33A2,2,0,0,1,115.93,36Z" transform="translate(-3.61 -2.5)"/></svg>