<svg id="레이어_1" data-name="레이어 1" xmlns="http://www.w3.org/2000/svg" viewBox="0 0 24 23.83"><defs><style>.cls-1{fill:#ab5173;}</style></defs><path class="cls-1" d="M13.09,12.26c-.36.06-1,0-1,.59a1.12,1.12,0,0,0,.92,1c.62.14.91-.21,1-.83S13.62,12.26,13.09,12.26Zm0,0c-.36.06-1,0-1,.59a1.12,1.12,0,0,0,.92,1c.62.14.91-.21,1-.83S13.62,12.26,13.09,12.26Zm0,0c-.36.06-1,0-1,.59a1.12,1.12,0,0,0,.92,1c.62.14.91-.21,1-.83S13.62,12.26,13.09,12.26Zm0,0c-.36.06-1,0-1,.59a1.12,1.12,0,0,0,.92,1c.62.14.91-.21,1-.83S13.62,12.26,13.09,12.26Zm0,0c-.36.06-1,0-1,.59a1.12,1.12,0,0,0,.92,1c.62.14.91-.21,1-.83S13.62,12.26,13.09,12.26Zm0,0c-.36.06-1,0-1,.59a1.12,1.12,0,0,0,.92,1c.62.14.91-.21,1-.83S13.62,12.26,13.09,12.26Zm0,0c-.36.06-1,0-1,.59a1.12,1.12,0,0,0,.92,1c.62.14.91-.21,1-.83S13.62,12.26,13.09,12.26Zm0,0c-.36.06-1,0-1,.59a1.12,1.12,0,0,0,.92,1c.62.14.91-.21,1-.83S13.62,12.26,13.09,12.26Zm0,0c-.36.06-1,0-1,.59a1.12,1.12,0,0,0,.92,1c.62.14.91-.21,1-.83S13.62,12.26,13.09,12.26Zm0,0c-.36.06-1,0-1,.59a1.12,1.12,0,0,0,.92,1c.62.14.91-.21,1-.83S13.62,12.26,13.09,12.26Zm0,0c-.36.06-1,0-1,.59a1.12,1.12,0,0,0,.92,1c.62.14.91-.21,1-.83S13.62,12.26,13.09,12.26Zm0,0c-.36.06-1,0-1,.59a1.12,1.12,0,0,0,.92,1c.62.14.91-.21,1-.83S13.62,12.26,13.09,12.26Zm.26-3.83A4.36,4.36,0,0,0,8.75,12a4.63,4.63,0,0,0,4.84,4.16,2.91,2.91,0,0,0,3.45-3A4.25,4.25,0,0,0,13.35,8.43Zm2.36,6.25a3.25,3.25,0,0,1-3.62.77,3.84,3.84,0,0,1-2.6-3.16,1.88,1.88,0,0,1,.8-1.88c2.21-2,4.27-1.77,5.42.5A3.17,3.17,0,0,1,15.71,14.68Zm-2.62-2.42c-.36.06-1,0-1,.59a1.12,1.12,0,0,0,.92,1c.62.14.91-.21,1-.83S13.62,12.26,13.09,12.26Zm0,0c-.36.06-1,0-1,.59a1.12,1.12,0,0,0,.92,1c.62.14.91-.21,1-.83S13.62,12.26,13.09,12.26Zm0,0c-.36.06-1,0-1,.59a1.12,1.12,0,0,0,.92,1c.62.14.91-.21,1-.83S13.62,12.26,13.09,12.26Zm0,0c-.36.06-1,0-1,.59a1.12,1.12,0,0,0,.92,1c.62.14.91-.21,1-.83S13.62,12.26,13.09,12.26Zm0,0c-.36.06-1,0-1,.59a1.12,1.12,0,0,0,.92,1c.62.14.91-.21,1-.83S13.62,12.26,13.09,12.26Zm0,0c-.36.06-1,0-1,.59a1.12,1.12,0,0,0,.92,1c.62.14.91-.21,1-.83S13.62,12.26,13.09,12.26Zm0,0c-.36.06-1,0-1,.59a1.12,1.12,0,0,0,.92,1c.62.14.91-.21,1-.83S13.62,12.26,13.09,12.26Zm0,0c-.36.06-1,0-1,.59a1.12,1.12,0,0,0,.92,1c.62.14.91-.21,1-.83S13.62,12.26,13.09,12.26Zm0,0c-.36.06-1,0-1,.59a1.12,1.12,0,0,0,.92,1c.62.14.91-.21,1-.83S13.62,12.26,13.09,12.26Zm0,0c-.36.06-1,0-1,.59a1.12,1.12,0,0,0,.92,1c.62.14.91-.21,1-.83S13.62,12.26,13.09,12.26Zm0,0c-.36.06-1,0-1,.59a1.12,1.12,0,0,0,.92,1c.62.14.91-.21,1-.83S13.62,12.26,13.09,12.26Zm0,0c-.36.06-1,0-1,.59a1.12,1.12,0,0,0,.92,1c.62.14.91-.21,1-.83S13.62,12.26,13.09,12.26Zm0,0c-.36.06-1,0-1,.59a1.12,1.12,0,0,0,.92,1c.62.14.91-.21,1-.83S13.62,12.26,13.09,12.26Zm0,0c-.36.06-1,0-1,.59a1.12,1.12,0,0,0,.92,1c.62.14.91-.21,1-.83S13.62,12.26,13.09,12.26Zm0,0c-.36.06-1,0-1,.59a1.12,1.12,0,0,0,.92,1c.62.14.91-.21,1-.83S13.62,12.26,13.09,12.26Zm0,0c-.36.06-1,0-1,.59a1.12,1.12,0,0,0,.92,1c.62.14.91-.21,1-.83S13.62,12.26,13.09,12.26Zm0,0c-.36.06-1,0-1,.59a1.12,1.12,0,0,0,.92,1c.62.14.91-.21,1-.83S13.62,12.26,13.09,12.26Z" transform="translate(-1 -1.09)"/><path class="cls-1" d="M13,6.34A6.46,6.46,0,0,0,7,12.06,6.29,6.29,0,0,0,13.41,18c.15,0,.3,0,.44,0a4.68,4.68,0,0,0,4.75-4.63A6.79,6.79,0,0,0,13,6.34Zm.18,10.88A5.68,5.68,0,0,1,8.14,14,4.61,4.61,0,0,1,9.7,8.14a4.54,4.54,0,0,1,5.89.2,7.63,7.63,0,0,1,2.12,3.25C18.86,14.83,17.13,17.25,13.21,17.22Z" transform="translate(-1 -1.09)"/><path class="cls-1" d="M18.69,7.75A6.48,6.48,0,0,0,10.55,5a8.86,8.86,0,0,0-5.33,8.37,7.72,7.72,0,0,0,8.16,6.58c.12,0,.24,0,.36,0a6.64,6.64,0,0,0,7.19-6.07A9.25,9.25,0,0,0,18.69,7.75Zm-4.6,11.53a4.94,4.94,0,0,1-.65,0,7.25,7.25,0,0,1-7.72-6.6A7.94,7.94,0,0,1,13,5.25a7.74,7.74,0,0,1,7,7.93A6,6,0,0,1,14.09,19.28Z" transform="translate(-1 -1.09)"/><path class="cls-1" d="M13.38,2.86A10.24,10.24,0,0,0,2.89,12.79c0,.15,0,.33,0,.48A10.17,10.17,0,0,0,13.77,22.7a8,8,0,0,0,.85,0,9,9,0,0,0,8.67-9v-.39A10.21,10.21,0,0,0,13.38,2.86ZM22.7,13.35a8.64,8.64,0,0,1-8.58,8.7c-.35,0-.68,0-1-.06a9.09,9.09,0,0,1-9.35-8.81v-.41a9.56,9.56,0,0,1,9.61-9.41A9.62,9.62,0,0,1,22.7,13.3Z" transform="translate(-1 -1.09)"/><path class="cls-1" d="M24.76,11.17a5.88,5.88,0,0,0-.21-1,11.75,11.75,0,0,0-14.2-8.72,4.1,4.1,0,0,0-.5.14A12.33,12.33,0,0,0,1.5,16.86c1.62,5,5.84,8,12.09,8a10,10,0,0,0,10.82-7.37A12.85,12.85,0,0,0,24.76,11.17Zm-1.45,7a10.07,10.07,0,0,1-1,2,9.9,9.9,0,0,1-9,4.07A10.78,10.78,0,0,1,1.56,14.53a11.09,11.09,0,0,1-.06-1.41c.21-7.4,8-13.29,14.74-11A12.4,12.4,0,0,1,23.31,18.16Z" transform="translate(-1 -1.09)"/><path class="cls-1" d="M13.09,12.26c-.36.06-1,0-1,.59a1.12,1.12,0,0,0,.92,1c.62.14.91-.21,1-.83S13.62,12.26,13.09,12.26Zm0,0c-.36.06-1,0-1,.59a1.12,1.12,0,0,0,.92,1c.62.14.91-.21,1-.83S13.62,12.26,13.09,12.26Zm0,0c-.36.06-1,0-1,.59a1.12,1.12,0,0,0,.92,1c.62.14.91-.21,1-.83S13.62,12.26,13.09,12.26Zm0,0c-.36.06-1,0-1,.59a1.12,1.12,0,0,0,.92,1c.62.14.91-.21,1-.83S13.62,12.26,13.09,12.26Zm0,0c-.36.06-1,0-1,.59a1.12,1.12,0,0,0,.92,1c.62.14.91-.21,1-.83S13.62,12.26,13.09,12.26Zm0,0c-.36.06-1,0-1,.59a1.12,1.12,0,0,0,.92,1c.62.14.91-.21,1-.83S13.62,12.26,13.09,12.26Zm0,0c-.36.06-1,0-1,.59a1.12,1.12,0,0,0,.92,1c.62.14.91-.21,1-.83S13.62,12.26,13.09,12.26Zm0,0c-.36.06-1,0-1,.59a1.12,1.12,0,0,0,.92,1c.62.14.91-.21,1-.83S13.62,12.26,13.09,12.26Zm0,0c-.36.06-1,0-1,.59a1.12,1.12,0,0,0,.92,1c.62.14.91-.21,1-.83S13.62,12.26,13.09,12.26Zm0,0c-.36.06-1,0-1,.59a1.12,1.12,0,0,0,.92,1c.62.14.91-.21,1-.83S13.62,12.26,13.09,12.26Zm0,0c-.36.06-1,0-1,.59a1.12,1.12,0,0,0,.92,1c.62.14.91-.21,1-.83S13.62,12.26,13.09,12.26Zm0,0c-.36.06-1,0-1,.59a1.12,1.12,0,0,0,.92,1c.62.14.91-.21,1-.83S13.62,12.26,13.09,12.26Zm.26-3.83A4.36,4.36,0,0,0,8.75,12a4.63,4.63,0,0,0,4.84,4.16,2.91,2.91,0,0,0,3.45-3A4.25,4.25,0,0,0,13.35,8.43Zm2.36,6.25a3.25,3.25,0,0,1-3.62.77,3.84,3.84,0,0,1-2.6-3.16,1.88,1.88,0,0,1,.8-1.88c2.21-2,4.27-1.77,5.42.5A3.17,3.17,0,0,1,15.71,14.68Zm-2.62-2.42c-.36.06-1,0-1,.59a1.12,1.12,0,0,0,.92,1c.62.14.91-.21,1-.83S13.62,12.26,13.09,12.26Zm0,0c-.36.06-1,0-1,.59a1.12,1.12,0,0,0,.92,1c.62.14.91-.21,1-.83S13.62,12.26,13.09,12.26Zm0,0c-.36.06-1,0-1,.59a1.12,1.12,0,0,0,.92,1c.62.14.91-.21,1-.83S13.62,12.26,13.09,12.26Zm0,0c-.36.06-1,0-1,.59a1.12,1.12,0,0,0,.92,1c.62.14.91-.21,1-.83S13.62,12.26,13.09,12.26Zm0,0c-.36.06-1,0-1,.59a1.12,1.12,0,0,0,.92,1c.62.14.91-.21,1-.83S13.62,12.26,13.09,12.26Zm0,0c-.36.06-1,0-1,.59a1.12,1.12,0,0,0,.92,1c.62.14.91-.21,1-.83S13.62,12.26,13.09,12.26Zm0,0c-.36.06-1,0-1,.59a1.12,1.12,0,0,0,.92,1c.62.14.91-.21,1-.83S13.62,12.26,13.09,12.26Zm0,0c-.36.06-1,0-1,.59a1.12,1.12,0,0,0,.92,1c.62.14.91-.21,1-.83S13.62,12.26,13.09,12.26Zm0,0c-.36.06-1,0-1,.59a1.12,1.12,0,0,0,.92,1c.62.14.91-.21,1-.83S13.62,12.26,13.09,12.26Zm0,0c-.36.06-1,0-1,.59a1.12,1.12,0,0,0,.92,1c.62.14.91-.21,1-.83S13.62,12.26,13.09,12.26Zm0,0c-.36.06-1,0-1,.59a1.12,1.12,0,0,0,.92,1c.62.14.91-.21,1-.83S13.62,12.26,13.09,12.26Zm0,0c-.36.06-1,0-1,.59a1.12,1.12,0,0,0,.92,1c.62.14.91-.21,1-.83S13.62,12.26,13.09,12.26Zm0,0c-.36.06-1,0-1,.59a1.12,1.12,0,0,0,.92,1c.62.14.91-.21,1-.83S13.62,12.26,13.09,12.26Zm0,0c-.36.06-1,0-1,.59a1.12,1.12,0,0,0,.92,1c.62.14.91-.21,1-.83S13.62,12.26,13.09,12.26Zm0,0c-.36.06-1,0-1,.59a1.12,1.12,0,0,0,.92,1c.62.14.91-.21,1-.83S13.62,12.26,13.09,12.26Zm0,0c-.36.06-1,0-1,.59a1.12,1.12,0,0,0,.92,1c.62.14.91-.21,1-.83S13.62,12.26,13.09,12.26Zm0,0c-.36.06-1,0-1,.59a1.12,1.12,0,0,0,.92,1c.62.14.91-.21,1-.83S13.62,12.26,13.09,12.26Z" transform="translate(-1 -1.09)"/><path class="cls-1" d="M13,6.34A6.46,6.46,0,0,0,7,12.06,6.29,6.29,0,0,0,13.41,18c.15,0,.3,0,.44,0a4.68,4.68,0,0,0,4.75-4.63A6.79,6.79,0,0,0,13,6.34Zm.18,10.88A5.68,5.68,0,0,1,8.14,14,4.61,4.61,0,0,1,9.7,8.14a4.54,4.54,0,0,1,5.89.2,7.63,7.63,0,0,1,2.12,3.25C18.86,14.83,17.13,17.25,13.21,17.22Z" transform="translate(-1 -1.09)"/><path class="cls-1" d="M18.69,7.75A6.48,6.48,0,0,0,10.55,5a8.86,8.86,0,0,0-5.33,8.37,7.72,7.72,0,0,0,8.16,6.58c.12,0,.24,0,.36,0a6.64,6.64,0,0,0,7.19-6.07A9.25,9.25,0,0,0,18.69,7.75Zm-4.6,11.53a4.94,4.94,0,0,1-.65,0,7.25,7.25,0,0,1-7.72-6.6A7.94,7.94,0,0,1,13,5.25a7.74,7.74,0,0,1,7,7.93A6,6,0,0,1,14.09,19.28Z" transform="translate(-1 -1.09)"/><path class="cls-1" d="M13.38,2.86A10.24,10.24,0,0,0,2.89,12.79c0,.15,0,.33,0,.48A10.17,10.17,0,0,0,13.77,22.7a8,8,0,0,0,.85,0,9,9,0,0,0,8.67-9v-.39A10.21,10.21,0,0,0,13.38,2.86ZM22.7,13.35a8.64,8.64,0,0,1-8.58,8.7c-.35,0-.68,0-1-.06a9.09,9.09,0,0,1-9.35-8.81v-.41a9.56,9.56,0,0,1,9.61-9.41A9.62,9.62,0,0,1,22.7,13.3Z" transform="translate(-1 -1.09)"/><path class="cls-1" d="M13.09,12.26c-.36.06-1,0-1,.59a1.12,1.12,0,0,0,.92,1c.62.14.91-.21,1-.83S13.62,12.26,13.09,12.26Zm0,0c-.36.06-1,0-1,.59a1.12,1.12,0,0,0,.92,1c.62.14.91-.21,1-.83S13.62,12.26,13.09,12.26Zm0,0c-.36.06-1,0-1,.59a1.12,1.12,0,0,0,.92,1c.62.14.91-.21,1-.83S13.62,12.26,13.09,12.26Zm0,0c-.36.06-1,0-1,.59a1.12,1.12,0,0,0,.92,1c.62.14.91-.21,1-.83S13.62,12.26,13.09,12.26Zm0,0c-.36.06-1,0-1,.59a1.12,1.12,0,0,0,.92,1c.62.14.91-.21,1-.83S13.62,12.26,13.09,12.26Zm0,0c-.36.06-1,0-1,.59a1.12,1.12,0,0,0,.92,1c.62.14.91-.21,1-.83S13.62,12.26,13.09,12.26Zm0,0c-.36.06-1,0-1,.59a1.12,1.12,0,0,0,.92,1c.62.14.91-.21,1-.83S13.62,12.26,13.09,12.26Zm0,0c-.36.06-1,0-1,.59a1.12,1.12,0,0,0,.92,1c.62.14.91-.21,1-.83S13.62,12.26,13.09,12.26Zm0,0c-.36.06-1,0-1,.59a1.12,1.12,0,0,0,.92,1c.62.14.91-.21,1-.83S13.62,12.26,13.09,12.26Zm0,0c-.36.06-1,0-1,.59a1.12,1.12,0,0,0,.92,1c.62.14.91-.21,1-.83S13.62,12.26,13.09,12.26Zm0,0c-.36.06-1,0-1,.59a1.12,1.12,0,0,0,.92,1c.62.14.91-.21,1-.83S13.62,12.26,13.09,12.26Zm0,0c-.36.06-1,0-1,.59a1.12,1.12,0,0,0,.92,1c.62.14.91-.21,1-.83S13.62,12.26,13.09,12.26Zm.26-3.83A4.36,4.36,0,0,0,8.75,12a4.63,4.63,0,0,0,4.84,4.16,2.91,2.91,0,0,0,3.45-3A4.25,4.25,0,0,0,13.35,8.43Zm2.36,6.25a3.25,3.25,0,0,1-3.62.77,3.84,3.84,0,0,1-2.6-3.16,1.88,1.88,0,0,1,.8-1.88c2.21-2,4.27-1.77,5.42.5A3.17,3.17,0,0,1,15.71,14.68Zm-2.62-2.42c-.36.06-1,0-1,.59a1.12,1.12,0,0,0,.92,1c.62.14.91-.21,1-.83S13.62,12.26,13.09,12.26Zm0,0c-.36.06-1,0-1,.59a1.12,1.12,0,0,0,.92,1c.62.14.91-.21,1-.83S13.62,12.26,13.09,12.26Zm0,0c-.36.06-1,0-1,.59a1.12,1.12,0,0,0,.92,1c.62.14.91-.21,1-.83S13.62,12.26,13.09,12.26Zm0,0c-.36.06-1,0-1,.59a1.12,1.12,0,0,0,.92,1c.62.14.91-.21,1-.83S13.62,12.26,13.09,12.26Zm0,0c-.36.06-1,0-1,.59a1.12,1.12,0,0,0,.92,1c.62.14.91-.21,1-.83S13.62,12.26,13.09,12.26Zm0,0c-.36.06-1,0-1,.59a1.12,1.12,0,0,0,.92,1c.62.14.91-.21,1-.83S13.62,12.26,13.09,12.26Zm0,0c-.36.06-1,0-1,.59a1.12,1.12,0,0,0,.92,1c.62.14.91-.21,1-.83S13.62,12.26,13.09,12.26Zm0,0c-.36.06-1,0-1,.59a1.12,1.12,0,0,0,.92,1c.62.14.91-.21,1-.83S13.62,12.26,13.09,12.26Zm0,0c-.36.06-1,0-1,.59a1.12,1.12,0,0,0,.92,1c.62.14.91-.21,1-.83S13.62,12.26,13.09,12.26Zm0,0c-.36.06-1,0-1,.59a1.12,1.12,0,0,0,.92,1c.62.14.91-.21,1-.83S13.62,12.26,13.09,12.26Zm0,0c-.36.06-1,0-1,.59a1.12,1.12,0,0,0,.92,1c.62.14.91-.21,1-.83S13.62,12.26,13.09,12.26Zm0,0c-.36.06-1,0-1,.59a1.12,1.12,0,0,0,.92,1c.62.14.91-.21,1-.83S13.62,12.26,13.09,12.26Zm0,0c-.36.06-1,0-1,.59a1.12,1.12,0,0,0,.92,1c.62.14.91-.21,1-.83S13.62,12.26,13.09,12.26Zm0,0c-.36.06-1,0-1,.59a1.12,1.12,0,0,0,.92,1c.62.14.91-.21,1-.83S13.62,12.26,13.09,12.26Zm0,0c-.36.06-1,0-1,.59a1.12,1.12,0,0,0,.92,1c.62.14.91-.21,1-.83S13.62,12.26,13.09,12.26Zm0,0c-.36.06-1,0-1,.59a1.12,1.12,0,0,0,.92,1c.62.14.91-.21,1-.83S13.62,12.26,13.09,12.26Zm0,0c-.36.06-1,0-1,.59a1.12,1.12,0,0,0,.92,1c.62.14.91-.21,1-.83S13.62,12.26,13.09,12.26Z" transform="translate(-1 -1.09)"/><path class="cls-1" d="M13,6.34A6.46,6.46,0,0,0,7,12.06,6.29,6.29,0,0,0,13.41,18c.15,0,.3,0,.44,0a4.68,4.68,0,0,0,4.75-4.63A6.79,6.79,0,0,0,13,6.34Zm.18,10.88A5.68,5.68,0,0,1,8.14,14,4.61,4.61,0,0,1,9.7,8.14a4.54,4.54,0,0,1,5.89.2,7.63,7.63,0,0,1,2.12,3.25C18.86,14.83,17.13,17.25,13.21,17.22Z" transform="translate(-1 -1.09)"/><path class="cls-1" d="M18.69,7.75A6.48,6.48,0,0,0,10.55,5a8.86,8.86,0,0,0-5.33,8.37,7.72,7.72,0,0,0,8.16,6.58c.12,0,.24,0,.36,0a6.64,6.64,0,0,0,7.19-6.07A9.25,9.25,0,0,0,18.69,7.75Zm-4.6,11.53a4.94,4.94,0,0,1-.65,0,7.25,7.25,0,0,1-7.72-6.6A7.94,7.94,0,0,1,13,5.25a7.74,7.74,0,0,1,7,7.93A6,6,0,0,1,14.09,19.28Z" transform="translate(-1 -1.09)"/><path class="cls-1" d="M13.38,2.86A10.24,10.24,0,0,0,2.89,12.79c0,.15,0,.33,0,.48A10.17,10.17,0,0,0,13.77,22.7a8,8,0,0,0,.85,0,9,9,0,0,0,8.67-9v-.39A10.21,10.21,0,0,0,13.38,2.86ZM22.7,13.35a8.64,8.64,0,0,1-8.58,8.7c-.35,0-.68,0-1-.06a9.09,9.09,0,0,1-9.35-8.81v-.41a9.56,9.56,0,0,1,9.61-9.41A9.62,9.62,0,0,1,22.7,13.3Z" transform="translate(-1 -1.09)"/><path class="cls-1" d="M13.09,12.26c-.36.06-1,0-1,.59a1.12,1.12,0,0,0,.92,1c.62.14.91-.21,1-.83S13.62,12.26,13.09,12.26Zm0,0c-.36.06-1,0-1,.59a1.12,1.12,0,0,0,.92,1c.62.14.91-.21,1-.83S13.62,12.26,13.09,12.26Zm0,0c-.36.06-1,0-1,.59a1.12,1.12,0,0,0,.92,1c.62.14.91-.21,1-.83S13.62,12.26,13.09,12.26Zm0,0c-.36.06-1,0-1,.59a1.12,1.12,0,0,0,.92,1c.62.14.91-.21,1-.83S13.62,12.26,13.09,12.26Zm0,0c-.36.06-1,0-1,.59a1.12,1.12,0,0,0,.92,1c.62.14.91-.21,1-.83S13.62,12.26,13.09,12.26Zm0,0c-.36.06-1,0-1,.59a1.12,1.12,0,0,0,.92,1c.62.14.91-.21,1-.83S13.62,12.26,13.09,12.26Zm0,0c-.36.06-1,0-1,.59a1.12,1.12,0,0,0,.92,1c.62.14.91-.21,1-.83S13.62,12.26,13.09,12.26Zm0,0c-.36.06-1,0-1,.59a1.12,1.12,0,0,0,.92,1c.62.14.91-.21,1-.83S13.62,12.26,13.09,12.26Zm0,0c-.36.06-1,0-1,.59a1.12,1.12,0,0,0,.92,1c.62.14.91-.21,1-.83S13.62,12.26,13.09,12.26Zm0,0c-.36.06-1,0-1,.59a1.12,1.12,0,0,0,.92,1c.62.14.91-.21,1-.83S13.62,12.26,13.09,12.26Zm0,0c-.36.06-1,0-1,.59a1.12,1.12,0,0,0,.92,1c.62.14.91-.21,1-.83S13.62,12.26,13.09,12.26Zm0,0c-.36.06-1,0-1,.59a1.12,1.12,0,0,0,.92,1c.62.14.91-.21,1-.83S13.62,12.26,13.09,12.26Zm.26-3.83A4.36,4.36,0,0,0,8.75,12a4.63,4.63,0,0,0,4.84,4.16,2.91,2.91,0,0,0,3.45-3A4.25,4.25,0,0,0,13.35,8.43Zm2.36,6.25a3.25,3.25,0,0,1-3.62.77,3.84,3.84,0,0,1-2.6-3.16,1.88,1.88,0,0,1,.8-1.88c2.21-2,4.27-1.77,5.42.5A3.17,3.17,0,0,1,15.71,14.68Zm-2.62-2.42c-.36.06-1,0-1,.59a1.12,1.12,0,0,0,.92,1c.62.14.91-.21,1-.83S13.62,12.26,13.09,12.26Zm0,0c-.36.06-1,0-1,.59a1.12,1.12,0,0,0,.92,1c.62.14.91-.21,1-.83S13.62,12.26,13.09,12.26Zm0,0c-.36.06-1,0-1,.59a1.12,1.12,0,0,0,.92,1c.62.14.91-.21,1-.83S13.62,12.26,13.09,12.26Zm0,0c-.36.06-1,0-1,.59a1.12,1.12,0,0,0,.92,1c.62.14.91-.21,1-.83S13.62,12.26,13.09,12.26Zm0,0c-.36.06-1,0-1,.59a1.12,1.12,0,0,0,.92,1c.62.14.91-.21,1-.83S13.62,12.26,13.09,12.26Zm0,0c-.36.06-1,0-1,.59a1.12,1.12,0,0,0,.92,1c.62.14.91-.21,1-.83S13.62,12.26,13.09,12.26Zm0,0c-.36.06-1,0-1,.59a1.12,1.12,0,0,0,.92,1c.62.14.91-.21,1-.83S13.62,12.26,13.09,12.26Zm0,0c-.36.06-1,0-1,.59a1.12,1.12,0,0,0,.92,1c.62.14.91-.21,1-.83S13.62,12.26,13.09,12.26Zm0,0c-.36.06-1,0-1,.59a1.12,1.12,0,0,0,.92,1c.62.14.91-.21,1-.83S13.62,12.26,13.09,12.26Zm0,0c-.36.06-1,0-1,.59a1.12,1.12,0,0,0,.92,1c.62.14.91-.21,1-.83S13.62,12.26,13.09,12.26Zm0,0c-.36.06-1,0-1,.59a1.12,1.12,0,0,0,.92,1c.62.14.91-.21,1-.83S13.62,12.26,13.09,12.26Zm0,0c-.36.06-1,0-1,.59a1.12,1.12,0,0,0,.92,1c.62.14.91-.21,1-.83S13.62,12.26,13.09,12.26Zm0,0c-.36.06-1,0-1,.59a1.12,1.12,0,0,0,.92,1c.62.14.91-.21,1-.83S13.62,12.26,13.09,12.26Zm0,0c-.36.06-1,0-1,.59a1.12,1.12,0,0,0,.92,1c.62.14.91-.21,1-.83S13.62,12.26,13.09,12.26Zm0,0c-.36.06-1,0-1,.59a1.12,1.12,0,0,0,.92,1c.62.14.91-.21,1-.83S13.62,12.26,13.09,12.26Zm0,0c-.36.06-1,0-1,.59a1.12,1.12,0,0,0,.92,1c.62.14.91-.21,1-.83S13.62,12.26,13.09,12.26Zm0,0c-.36.06-1,0-1,.59a1.12,1.12,0,0,0,.92,1c.62.14.91-.21,1-.83S13.62,12.26,13.09,12.26Z" transform="translate(-1 -1.09)"/><path class="cls-1" d="M13,6.34A6.46,6.46,0,0,0,7,12.06,6.29,6.29,0,0,0,13.41,18c.15,0,.3,0,.44,0a4.68,4.68,0,0,0,4.75-4.63A6.79,6.79,0,0,0,13,6.34Zm.18,10.88A5.68,5.68,0,0,1,8.14,14,4.61,4.61,0,0,1,9.7,8.14a4.54,4.54,0,0,1,5.89.2,7.63,7.63,0,0,1,2.12,3.25C18.86,14.83,17.13,17.25,13.21,17.22Z" transform="translate(-1 -1.09)"/><path class="cls-1" d="M18.69,7.75A6.48,6.48,0,0,0,10.55,5a8.86,8.86,0,0,0-5.33,8.37,7.72,7.72,0,0,0,8.16,6.58c.12,0,.24,0,.36,0a6.64,6.64,0,0,0,7.19-6.07A9.25,9.25,0,0,0,18.69,7.75Zm-4.6,11.53a4.94,4.94,0,0,1-.65,0,7.25,7.25,0,0,1-7.72-6.6A7.94,7.94,0,0,1,13,5.25a7.74,7.74,0,0,1,7,7.93A6,6,0,0,1,14.09,19.28Z" transform="translate(-1 -1.09)"/><path class="cls-1" d="M13.09,12.26c-.36.06-1,0-1,.59a1.12,1.12,0,0,0,.92,1c.62.14.91-.21,1-.83S13.62,12.26,13.09,12.26Zm0,0c-.36.06-1,0-1,.59a1.12,1.12,0,0,0,.92,1c.62.14.91-.21,1-.83S13.62,12.26,13.09,12.26Zm0,0c-.36.06-1,0-1,.59a1.12,1.12,0,0,0,.92,1c.62.14.91-.21,1-.83S13.62,12.26,13.09,12.26Zm0,0c-.36.06-1,0-1,.59a1.12,1.12,0,0,0,.92,1c.62.14.91-.21,1-.83S13.62,12.26,13.09,12.26Zm0,0c-.36.06-1,0-1,.59a1.12,1.12,0,0,0,.92,1c.62.14.91-.21,1-.83S13.62,12.26,13.09,12.26Zm0,0c-.36.06-1,0-1,.59a1.12,1.12,0,0,0,.92,1c.62.14.91-.21,1-.83S13.62,12.26,13.09,12.26Zm0,0c-.36.06-1,0-1,.59a1.12,1.12,0,0,0,.92,1c.62.14.91-.21,1-.83S13.62,12.26,13.09,12.26Zm0,0c-.36.06-1,0-1,.59a1.12,1.12,0,0,0,.92,1c.62.14.91-.21,1-.83S13.62,12.26,13.09,12.26Zm0,0c-.36.06-1,0-1,.59a1.12,1.12,0,0,0,.92,1c.62.14.91-.21,1-.83S13.62,12.26,13.09,12.26Zm0,0c-.36.06-1,0-1,.59a1.12,1.12,0,0,0,.92,1c.62.14.91-.21,1-.83S13.62,12.26,13.09,12.26Zm0,0c-.36.06-1,0-1,.59a1.12,1.12,0,0,0,.92,1c.62.14.91-.21,1-.83S13.62,12.26,13.09,12.26Zm0,0c-.36.06-1,0-1,.59a1.12,1.12,0,0,0,.92,1c.62.14.91-.21,1-.83S13.62,12.26,13.09,12.26Zm.26-3.83A4.36,4.36,0,0,0,8.75,12a4.63,4.63,0,0,0,4.84,4.16,2.91,2.91,0,0,0,3.45-3A4.25,4.25,0,0,0,13.35,8.43Zm2.36,6.25a3.25,3.25,0,0,1-3.62.77,3.84,3.84,0,0,1-2.6-3.16,1.88,1.88,0,0,1,.8-1.88c2.21-2,4.27-1.77,5.42.5A3.17,3.17,0,0,1,15.71,14.68Zm-2.62-2.42c-.36.06-1,0-1,.59a1.12,1.12,0,0,0,.92,1c.62.14.91-.21,1-.83S13.62,12.26,13.09,12.26Zm0,0c-.36.06-1,0-1,.59a1.12,1.12,0,0,0,.92,1c.62.14.91-.21,1-.83S13.62,12.26,13.09,12.26Zm0,0c-.36.06-1,0-1,.59a1.12,1.12,0,0,0,.92,1c.62.14.91-.21,1-.83S13.62,12.26,13.09,12.26Zm0,0c-.36.06-1,0-1,.59a1.12,1.12,0,0,0,.92,1c.62.14.91-.21,1-.83S13.62,12.26,13.09,12.26Zm0,0c-.36.06-1,0-1,.59a1.12,1.12,0,0,0,.92,1c.62.14.91-.21,1-.83S13.62,12.26,13.09,12.26Zm0,0c-.36.06-1,0-1,.59a1.12,1.12,0,0,0,.92,1c.62.14.91-.21,1-.83S13.62,12.26,13.09,12.26Zm0,0c-.36.06-1,0-1,.59a1.12,1.12,0,0,0,.92,1c.62.14.91-.21,1-.83S13.62,12.26,13.09,12.26Zm0,0c-.36.06-1,0-1,.59a1.12,1.12,0,0,0,.92,1c.62.14.91-.21,1-.83S13.62,12.26,13.09,12.26Zm0,0c-.36.06-1,0-1,.59a1.12,1.12,0,0,0,.92,1c.62.14.91-.21,1-.83S13.62,12.26,13.09,12.26Zm0,0c-.36.06-1,0-1,.59a1.12,1.12,0,0,0,.92,1c.62.14.91-.21,1-.83S13.62,12.26,13.09,12.26Zm0,0c-.36.06-1,0-1,.59a1.12,1.12,0,0,0,.92,1c.62.14.91-.21,1-.83S13.62,12.26,13.09,12.26Zm0,0c-.36.06-1,0-1,.59a1.12,1.12,0,0,0,.92,1c.62.14.91-.21,1-.83S13.62,12.26,13.09,12.26Zm0,0c-.36.06-1,0-1,.59a1.12,1.12,0,0,0,.92,1c.62.14.91-.21,1-.83S13.62,12.26,13.09,12.26Zm0,0c-.36.06-1,0-1,.59a1.12,1.12,0,0,0,.92,1c.62.14.91-.21,1-.83S13.62,12.26,13.09,12.26Zm0,0c-.36.06-1,0-1,.59a1.12,1.12,0,0,0,.92,1c.62.14.91-.21,1-.83S13.62,12.26,13.09,12.26Zm0,0c-.36.06-1,0-1,.59a1.12,1.12,0,0,0,.92,1c.62.14.91-.21,1-.83S13.62,12.26,13.09,12.26Zm0,0c-.36.06-1,0-1,.59a1.12,1.12,0,0,0,.92,1c.62.14.91-.21,1-.83S13.62,12.26,13.09,12.26Z" transform="translate(-1 -1.09)"/><path class="cls-1" d="M13,6.34A6.46,6.46,0,0,0,7,12.06,6.29,6.29,0,0,0,13.41,18c.15,0,.3,0,.44,0a4.68,4.68,0,0,0,4.75-4.63A6.79,6.79,0,0,0,13,6.34Zm.18,10.88A5.68,5.68,0,0,1,8.14,14,4.61,4.61,0,0,1,9.7,8.14a4.54,4.54,0,0,1,5.89.2,7.63,7.63,0,0,1,2.12,3.25C18.86,14.83,17.13,17.25,13.21,17.22Z" transform="translate(-1 -1.09)"/><path class="cls-1" d="M18.69,7.75A6.48,6.48,0,0,0,10.55,5a8.86,8.86,0,0,0-5.33,8.37,7.72,7.72,0,0,0,8.16,6.58c.12,0,.24,0,.36,0a6.64,6.64,0,0,0,7.19-6.07A9.25,9.25,0,0,0,18.69,7.75Zm-4.6,11.53a4.94,4.94,0,0,1-.65,0,7.25,7.25,0,0,1-7.72-6.6A7.94,7.94,0,0,1,13,5.25a7.74,7.74,0,0,1,7,7.93A6,6,0,0,1,14.09,19.28Z" transform="translate(-1 -1.09)"/><path class="cls-1" d="M13.09,12.26c-.36.06-1,0-1,.59a1.12,1.12,0,0,0,.92,1c.62.14.91-.21,1-.83S13.62,12.26,13.09,12.26Zm0,0c-.36.06-1,0-1,.59a1.12,1.12,0,0,0,.92,1c.62.14.91-.21,1-.83S13.62,12.26,13.09,12.26Zm0,0c-.36.06-1,0-1,.59a1.12,1.12,0,0,0,.92,1c.62.14.91-.21,1-.83S13.62,12.26,13.09,12.26Zm0,0c-.36.06-1,0-1,.59a1.12,1.12,0,0,0,.92,1c.62.14.91-.21,1-.83S13.62,12.26,13.09,12.26Zm0,0c-.36.06-1,0-1,.59a1.12,1.12,0,0,0,.92,1c.62.14.91-.21,1-.83S13.62,12.26,13.09,12.26Zm0,0c-.36.06-1,0-1,.59a1.12,1.12,0,0,0,.92,1c.62.14.91-.21,1-.83S13.62,12.26,13.09,12.26Zm0,0c-.36.06-1,0-1,.59a1.12,1.12,0,0,0,.92,1c.62.14.91-.21,1-.83S13.62,12.26,13.09,12.26Zm0,0c-.36.06-1,0-1,.59a1.12,1.12,0,0,0,.92,1c.62.14.91-.21,1-.83S13.62,12.26,13.09,12.26Zm0,0c-.36.06-1,0-1,.59a1.12,1.12,0,0,0,.92,1c.62.14.91-.21,1-.83S13.62,12.26,13.09,12.26Zm0,0c-.36.06-1,0-1,.59a1.12,1.12,0,0,0,.92,1c.62.14.91-.21,1-.83S13.62,12.26,13.09,12.26Zm0,0c-.36.06-1,0-1,.59a1.12,1.12,0,0,0,.92,1c.62.14.91-.21,1-.83S13.62,12.26,13.09,12.26Zm0,0c-.36.06-1,0-1,.59a1.12,1.12,0,0,0,.92,1c.62.14.91-.21,1-.83S13.62,12.26,13.09,12.26Zm.26-3.83A4.36,4.36,0,0,0,8.75,12a4.63,4.63,0,0,0,4.84,4.16,2.91,2.91,0,0,0,3.45-3A4.25,4.25,0,0,0,13.35,8.43Zm2.36,6.25a3.25,3.25,0,0,1-3.62.77,3.84,3.84,0,0,1-2.6-3.16,1.88,1.88,0,0,1,.8-1.88c2.21-2,4.27-1.77,5.42.5A3.17,3.17,0,0,1,15.71,14.68Zm-2.62-2.42c-.36.06-1,0-1,.59a1.12,1.12,0,0,0,.92,1c.62.14.91-.21,1-.83S13.62,12.26,13.09,12.26Zm0,0c-.36.06-1,0-1,.59a1.12,1.12,0,0,0,.92,1c.62.14.91-.21,1-.83S13.62,12.26,13.09,12.26Zm0,0c-.36.06-1,0-1,.59a1.12,1.12,0,0,0,.92,1c.62.14.91-.21,1-.83S13.62,12.26,13.09,12.26Zm0,0c-.36.06-1,0-1,.59a1.12,1.12,0,0,0,.92,1c.62.14.91-.21,1-.83S13.62,12.26,13.09,12.26Zm0,0c-.36.06-1,0-1,.59a1.12,1.12,0,0,0,.92,1c.62.14.91-.21,1-.83S13.62,12.26,13.09,12.26Zm0,0c-.36.06-1,0-1,.59a1.12,1.12,0,0,0,.92,1c.62.14.91-.21,1-.83S13.62,12.26,13.09,12.26Zm0,0c-.36.06-1,0-1,.59a1.12,1.12,0,0,0,.92,1c.62.14.91-.21,1-.83S13.62,12.26,13.09,12.26Zm0,0c-.36.06-1,0-1,.59a1.12,1.12,0,0,0,.92,1c.62.14.91-.21,1-.83S13.62,12.26,13.09,12.26Zm0,0c-.36.06-1,0-1,.59a1.12,1.12,0,0,0,.92,1c.62.14.91-.21,1-.83S13.62,12.26,13.09,12.26Zm0,0c-.36.06-1,0-1,.59a1.12,1.12,0,0,0,.92,1c.62.14.91-.21,1-.83S13.62,12.26,13.09,12.26Zm0,0c-.36.06-1,0-1,.59a1.12,1.12,0,0,0,.92,1c.62.14.91-.21,1-.83S13.62,12.26,13.09,12.26Zm0,0c-.36.06-1,0-1,.59a1.12,1.12,0,0,0,.92,1c.62.14.91-.21,1-.83S13.62,12.26,13.09,12.26Zm0,0c-.36.06-1,0-1,.59a1.12,1.12,0,0,0,.92,1c.62.14.91-.21,1-.83S13.62,12.26,13.09,12.26Zm0,0c-.36.06-1,0-1,.59a1.12,1.12,0,0,0,.92,1c.62.14.91-.21,1-.83S13.62,12.26,13.09,12.26Zm0,0c-.36.06-1,0-1,.59a1.12,1.12,0,0,0,.92,1c.62.14.91-.21,1-.83S13.62,12.26,13.09,12.26Zm0,0c-.36.06-1,0-1,.59a1.12,1.12,0,0,0,.92,1c.62.14.91-.21,1-.83S13.62,12.26,13.09,12.26Zm0,0c-.36.06-1,0-1,.59a1.12,1.12,0,0,0,.92,1c.62.14.91-.21,1-.83S13.62,12.26,13.09,12.26Z" transform="translate(-1 -1.09)"/><path class="cls-1" d="M13,6.34A6.46,6.46,0,0,0,7,12.06,6.29,6.29,0,0,0,13.41,18c.15,0,.3,0,.44,0a4.68,4.68,0,0,0,4.75-4.63A6.79,6.79,0,0,0,13,6.34Zm.18,10.88A5.68,5.68,0,0,1,8.14,14,4.61,4.61,0,0,1,9.7,8.14a4.54,4.54,0,0,1,5.89.2,7.63,7.63,0,0,1,2.12,3.25C18.86,14.83,17.13,17.25,13.21,17.22Z" transform="translate(-1 -1.09)"/><path class="cls-1" d="M13.09,12.26c-.36.06-1,0-1,.59a1.12,1.12,0,0,0,.92,1c.62.14.91-.21,1-.83S13.62,12.26,13.09,12.26Zm0,0c-.36.06-1,0-1,.59a1.12,1.12,0,0,0,.92,1c.62.14.91-.21,1-.83S13.62,12.26,13.09,12.26Zm0,0c-.36.06-1,0-1,.59a1.12,1.12,0,0,0,.92,1c.62.14.91-.21,1-.83S13.62,12.26,13.09,12.26Zm0,0c-.36.06-1,0-1,.59a1.12,1.12,0,0,0,.92,1c.62.14.91-.21,1-.83S13.62,12.26,13.09,12.26Zm0,0c-.36.06-1,0-1,.59a1.12,1.12,0,0,0,.92,1c.62.14.91-.21,1-.83S13.62,12.26,13.09,12.26Zm0,0c-.36.06-1,0-1,.59a1.12,1.12,0,0,0,.92,1c.62.14.91-.21,1-.83S13.62,12.26,13.09,12.26Zm0,0c-.36.06-1,0-1,.59a1.12,1.12,0,0,0,.92,1c.62.14.91-.21,1-.83S13.62,12.26,13.09,12.26Zm0,0c-.36.06-1,0-1,.59a1.12,1.12,0,0,0,.92,1c.62.14.91-.21,1-.83S13.62,12.26,13.09,12.26Zm0,0c-.36.06-1,0-1,.59a1.12,1.12,0,0,0,.92,1c.62.14.91-.21,1-.83S13.62,12.26,13.09,12.26Zm0,0c-.36.06-1,0-1,.59a1.12,1.12,0,0,0,.92,1c.62.14.91-.21,1-.83S13.62,12.26,13.09,12.26Zm0,0c-.36.06-1,0-1,.59a1.12,1.12,0,0,0,.92,1c.62.14.91-.21,1-.83S13.62,12.26,13.09,12.26Zm0,0c-.36.06-1,0-1,.59a1.12,1.12,0,0,0,.92,1c.62.14.91-.21,1-.83S13.62,12.26,13.09,12.26Zm.26-3.83A4.36,4.36,0,0,0,8.75,12a4.63,4.63,0,0,0,4.84,4.16,2.91,2.91,0,0,0,3.45-3A4.25,4.25,0,0,0,13.35,8.43Zm2.36,6.25a3.25,3.25,0,0,1-3.62.77,3.84,3.84,0,0,1-2.6-3.16,1.88,1.88,0,0,1,.8-1.88c2.21-2,4.27-1.77,5.42.5A3.17,3.17,0,0,1,15.71,14.68Zm-2.62-2.42c-.36.06-1,0-1,.59a1.12,1.12,0,0,0,.92,1c.62.14.91-.21,1-.83S13.62,12.26,13.09,12.26Zm0,0c-.36.06-1,0-1,.59a1.12,1.12,0,0,0,.92,1c.62.14.91-.21,1-.83S13.62,12.26,13.09,12.26Zm0,0c-.36.06-1,0-1,.59a1.12,1.12,0,0,0,.92,1c.62.14.91-.21,1-.83S13.62,12.26,13.09,12.26Zm0,0c-.36.06-1,0-1,.59a1.12,1.12,0,0,0,.92,1c.62.14.91-.21,1-.83S13.62,12.26,13.09,12.26Zm0,0c-.36.06-1,0-1,.59a1.12,1.12,0,0,0,.92,1c.62.14.91-.21,1-.83S13.62,12.26,13.09,12.26Zm0,0c-.36.06-1,0-1,.59a1.12,1.12,0,0,0,.92,1c.62.14.91-.21,1-.83S13.62,12.26,13.09,12.26Zm0,0c-.36.06-1,0-1,.59a1.12,1.12,0,0,0,.92,1c.62.14.91-.21,1-.83S13.62,12.26,13.09,12.26Zm0,0c-.36.06-1,0-1,.59a1.12,1.12,0,0,0,.92,1c.62.14.91-.21,1-.83S13.62,12.26,13.09,12.26Zm0,0c-.36.06-1,0-1,.59a1.12,1.12,0,0,0,.92,1c.62.14.91-.21,1-.83S13.62,12.26,13.09,12.26Zm0,0c-.36.06-1,0-1,.59a1.12,1.12,0,0,0,.92,1c.62.14.91-.21,1-.83S13.62,12.26,13.09,12.26Zm0,0c-.36.06-1,0-1,.59a1.12,1.12,0,0,0,.92,1c.62.14.91-.21,1-.83S13.62,12.26,13.09,12.26Zm0,0c-.36.06-1,0-1,.59a1.12,1.12,0,0,0,.92,1c.62.14.91-.21,1-.83S13.62,12.26,13.09,12.26Zm0,0c-.36.06-1,0-1,.59a1.12,1.12,0,0,0,.92,1c.62.14.91-.21,1-.83S13.62,12.26,13.09,12.26Zm0,0c-.36.06-1,0-1,.59a1.12,1.12,0,0,0,.92,1c.62.14.91-.21,1-.83S13.62,12.26,13.09,12.26Zm0,0c-.36.06-1,0-1,.59a1.12,1.12,0,0,0,.92,1c.62.14.91-.21,1-.83S13.62,12.26,13.09,12.26Zm0,0c-.36.06-1,0-1,.59a1.12,1.12,0,0,0,.92,1c.62.14.91-.21,1-.83S13.62,12.26,13.09,12.26Zm0,0c-.36.06-1,0-1,.59a1.12,1.12,0,0,0,.92,1c.62.14.91-.21,1-.83S13.62,12.26,13.09,12.26Z" transform="translate(-1 -1.09)"/><path class="cls-1" d="M13,6.34A6.46,6.46,0,0,0,7,12.06,6.29,6.29,0,0,0,13.41,18c.15,0,.3,0,.44,0a4.68,4.68,0,0,0,4.75-4.63A6.79,6.79,0,0,0,13,6.34Zm.18,10.88A5.68,5.68,0,0,1,8.14,14,4.61,4.61,0,0,1,9.7,8.14a4.54,4.54,0,0,1,5.89.2,7.63,7.63,0,0,1,2.12,3.25C18.86,14.83,17.13,17.25,13.21,17.22Z" transform="translate(-1 -1.09)"/><path class="cls-1" d="M13.09,12.26c-.36.06-1,0-1,.59a1.12,1.12,0,0,0,.92,1c.62.14.91-.21,1-.83S13.62,12.26,13.09,12.26Zm0,0c-.36.06-1,0-1,.59a1.12,1.12,0,0,0,.92,1c.62.14.91-.21,1-.83S13.62,12.26,13.09,12.26Zm0,0c-.36.06-1,0-1,.59a1.12,1.12,0,0,0,.92,1c.62.14.91-.21,1-.83S13.62,12.26,13.09,12.26Zm0,0c-.36.06-1,0-1,.59a1.12,1.12,0,0,0,.92,1c.62.14.91-.21,1-.83S13.62,12.26,13.09,12.26Zm0,0c-.36.06-1,0-1,.59a1.12,1.12,0,0,0,.92,1c.62.14.91-.21,1-.83S13.62,12.26,13.09,12.26Zm0,0c-.36.06-1,0-1,.59a1.12,1.12,0,0,0,.92,1c.62.14.91-.21,1-.83S13.62,12.26,13.09,12.26Zm0,0c-.36.06-1,0-1,.59a1.12,1.12,0,0,0,.92,1c.62.14.91-.21,1-.83S13.62,12.26,13.09,12.26Zm0,0c-.36.06-1,0-1,.59a1.12,1.12,0,0,0,.92,1c.62.14.91-.21,1-.83S13.62,12.26,13.09,12.26Zm0,0c-.36.06-1,0-1,.59a1.12,1.12,0,0,0,.92,1c.62.14.91-.21,1-.83S13.62,12.26,13.09,12.26Zm0,0c-.36.06-1,0-1,.59a1.12,1.12,0,0,0,.92,1c.62.14.91-.21,1-.83S13.62,12.26,13.09,12.26Zm0,0c-.36.06-1,0-1,.59a1.12,1.12,0,0,0,.92,1c.62.14.91-.21,1-.83S13.62,12.26,13.09,12.26Zm0,0c-.36.06-1,0-1,.59a1.12,1.12,0,0,0,.92,1c.62.14.91-.21,1-.83S13.62,12.26,13.09,12.26Zm.26-3.83A4.36,4.36,0,0,0,8.75,12a4.63,4.63,0,0,0,4.84,4.16,2.91,2.91,0,0,0,3.45-3A4.25,4.25,0,0,0,13.35,8.43Zm2.36,6.25a3.25,3.25,0,0,1-3.62.77,3.84,3.84,0,0,1-2.6-3.16,1.88,1.88,0,0,1,.8-1.88c2.21-2,4.27-1.77,5.42.5A3.17,3.17,0,0,1,15.71,14.68Zm-2.62-2.42c-.36.06-1,0-1,.59a1.12,1.12,0,0,0,.92,1c.62.14.91-.21,1-.83S13.62,12.26,13.09,12.26Zm0,0c-.36.06-1,0-1,.59a1.12,1.12,0,0,0,.92,1c.62.14.91-.21,1-.83S13.62,12.26,13.09,12.26Zm0,0c-.36.06-1,0-1,.59a1.12,1.12,0,0,0,.92,1c.62.14.91-.21,1-.83S13.62,12.26,13.09,12.26Zm0,0c-.36.06-1,0-1,.59a1.12,1.12,0,0,0,.92,1c.62.14.91-.21,1-.83S13.62,12.26,13.09,12.26Zm0,0c-.36.06-1,0-1,.59a1.12,1.12,0,0,0,.92,1c.62.14.91-.21,1-.83S13.62,12.26,13.09,12.26Zm0,0c-.36.06-1,0-1,.59a1.12,1.12,0,0,0,.92,1c.62.14.91-.21,1-.83S13.62,12.26,13.09,12.26Zm0,0c-.36.06-1,0-1,.59a1.12,1.12,0,0,0,.92,1c.62.14.91-.21,1-.83S13.62,12.26,13.09,12.26Zm0,0c-.36.06-1,0-1,.59a1.12,1.12,0,0,0,.92,1c.62.14.91-.21,1-.83S13.62,12.26,13.09,12.26Zm0,0c-.36.06-1,0-1,.59a1.12,1.12,0,0,0,.92,1c.62.14.91-.21,1-.83S13.62,12.26,13.09,12.26Zm0,0c-.36.06-1,0-1,.59a1.12,1.12,0,0,0,.92,1c.62.14.91-.21,1-.83S13.62,12.26,13.09,12.26Zm0,0c-.36.06-1,0-1,.59a1.12,1.12,0,0,0,.92,1c.62.14.91-.21,1-.83S13.62,12.26,13.09,12.26Zm0,0c-.36.06-1,0-1,.59a1.12,1.12,0,0,0,.92,1c.62.14.91-.21,1-.83S13.62,12.26,13.09,12.26Zm0,0c-.36.06-1,0-1,.59a1.12,1.12,0,0,0,.92,1c.62.14.91-.21,1-.83S13.62,12.26,13.09,12.26Zm0,0c-.36.06-1,0-1,.59a1.12,1.12,0,0,0,.92,1c.62.14.91-.21,1-.83S13.62,12.26,13.09,12.26Zm0,0c-.36.06-1,0-1,.59a1.12,1.12,0,0,0,.92,1c.62.14.91-.21,1-.83S13.62,12.26,13.09,12.26Zm0,0c-.36.06-1,0-1,.59a1.12,1.12,0,0,0,.92,1c.62.14.91-.21,1-.83S13.62,12.26,13.09,12.26Zm0,0c-.36.06-1,0-1,.59a1.12,1.12,0,0,0,.92,1c.62.14.91-.21,1-.83S13.62,12.26,13.09,12.26Z" transform="translate(-1 -1.09)"/><path class="cls-1" d="M13.09,12.26c-.36.06-1,0-1,.59a1.12,1.12,0,0,0,.92,1c.62.14.91-.21,1-.83S13.62,12.26,13.09,12.26Zm0,0c-.36.06-1,0-1,.59a1.12,1.12,0,0,0,.92,1c.62.14.91-.21,1-.83S13.62,12.26,13.09,12.26Zm0,0c-.36.06-1,0-1,.59a1.12,1.12,0,0,0,.92,1c.62.14.91-.21,1-.83S13.62,12.26,13.09,12.26Zm0,0c-.36.06-1,0-1,.59a1.12,1.12,0,0,0,.92,1c.62.14.91-.21,1-.83S13.62,12.26,13.09,12.26Zm0,0c-.36.06-1,0-1,.59a1.12,1.12,0,0,0,.92,1c.62.14.91-.21,1-.83S13.62,12.26,13.09,12.26Zm0,0c-.36.06-1,0-1,.59a1.12,1.12,0,0,0,.92,1c.62.14.91-.21,1-.83S13.62,12.26,13.09,12.26Zm0,0c-.36.06-1,0-1,.59a1.12,1.12,0,0,0,.92,1c.62.14.91-.21,1-.83S13.62,12.26,13.09,12.26Zm0,0c-.36.06-1,0-1,.59a1.12,1.12,0,0,0,.92,1c.62.14.91-.21,1-.83S13.62,12.26,13.09,12.26Zm0,0c-.36.06-1,0-1,.59a1.12,1.12,0,0,0,.92,1c.62.14.91-.21,1-.83S13.62,12.26,13.09,12.26Zm0,0c-.36.06-1,0-1,.59a1.12,1.12,0,0,0,.92,1c.62.14.91-.21,1-.83S13.62,12.26,13.09,12.26Zm0,0c-.36.06-1,0-1,.59a1.12,1.12,0,0,0,.92,1c.62.14.91-.21,1-.83S13.62,12.26,13.09,12.26Zm0,0c-.36.06-1,0-1,.59a1.12,1.12,0,0,0,.92,1c.62.14.91-.21,1-.83S13.62,12.26,13.09,12.26Zm.26-3.83A4.36,4.36,0,0,0,8.75,12a4.63,4.63,0,0,0,4.84,4.16,2.91,2.91,0,0,0,3.45-3A4.25,4.25,0,0,0,13.35,8.43Zm2.36,6.25a3.25,3.25,0,0,1-3.62.77,3.84,3.84,0,0,1-2.6-3.16,1.88,1.88,0,0,1,.8-1.88c2.21-2,4.27-1.77,5.42.5A3.17,3.17,0,0,1,15.71,14.68Zm-2.62-2.42c-.36.06-1,0-1,.59a1.12,1.12,0,0,0,.92,1c.62.14.91-.21,1-.83S13.62,12.26,13.09,12.26Zm0,0c-.36.06-1,0-1,.59a1.12,1.12,0,0,0,.92,1c.62.14.91-.21,1-.83S13.62,12.26,13.09,12.26Zm0,0c-.36.06-1,0-1,.59a1.12,1.12,0,0,0,.92,1c.62.14.91-.21,1-.83S13.62,12.26,13.09,12.26Zm0,0c-.36.06-1,0-1,.59a1.12,1.12,0,0,0,.92,1c.62.14.91-.21,1-.83S13.62,12.26,13.09,12.26Zm0,0c-.36.06-1,0-1,.59a1.12,1.12,0,0,0,.92,1c.62.14.91-.21,1-.83S13.62,12.26,13.09,12.26Zm0,0c-.36.06-1,0-1,.59a1.12,1.12,0,0,0,.92,1c.62.14.91-.21,1-.83S13.62,12.26,13.09,12.26Zm0,0c-.36.06-1,0-1,.59a1.12,1.12,0,0,0,.92,1c.62.14.91-.21,1-.83S13.62,12.26,13.09,12.26Zm0,0c-.36.06-1,0-1,.59a1.12,1.12,0,0,0,.92,1c.62.14.91-.21,1-.83S13.62,12.26,13.09,12.26Zm0,0c-.36.06-1,0-1,.59a1.12,1.12,0,0,0,.92,1c.62.14.91-.21,1-.83S13.62,12.26,13.09,12.26Zm0,0c-.36.06-1,0-1,.59a1.12,1.12,0,0,0,.92,1c.62.14.91-.21,1-.83S13.62,12.26,13.09,12.26Zm0,0c-.36.06-1,0-1,.59a1.12,1.12,0,0,0,.92,1c.62.14.91-.21,1-.83S13.62,12.26,13.09,12.26Zm0,0c-.36.06-1,0-1,.59a1.12,1.12,0,0,0,.92,1c.62.14.91-.21,1-.83S13.62,12.26,13.09,12.26Zm0,0c-.36.06-1,0-1,.59a1.12,1.12,0,0,0,.92,1c.62.14.91-.21,1-.83S13.62,12.26,13.09,12.26Zm0,0c-.36.06-1,0-1,.59a1.12,1.12,0,0,0,.92,1c.62.14.91-.21,1-.83S13.62,12.26,13.09,12.26Zm0,0c-.36.06-1,0-1,.59a1.12,1.12,0,0,0,.92,1c.62.14.91-.21,1-.83S13.62,12.26,13.09,12.26Zm0,0c-.36.06-1,0-1,.59a1.12,1.12,0,0,0,.92,1c.62.14.91-.21,1-.83S13.62,12.26,13.09,12.26Zm0,0c-.36.06-1,0-1,.59a1.12,1.12,0,0,0,.92,1c.62.14.91-.21,1-.83S13.62,12.26,13.09,12.26Z" transform="translate(-1 -1.09)"/><path class="cls-1" d="M14,13.06c-.09.62-.38,1-1,.83a1.12,1.12,0,0,1-.92-1c0-.64.62-.53,1-.59C13.62,12.26,14.12,12.44,14,13.06Z" transform="translate(-1 -1.09)"/><path class="cls-1" d="M15.71,11.23c-.06,0-.09,0-.15,0-1.47-.35-3,.15-4.33-.79-.09-.09-.38.14-.62.2a.18.18,0,0,1-.12,0,3.48,3.48,0,0,0,1.24,3.83,2.22,2.22,0,0,0,2.77.18A2.93,2.93,0,0,0,15.71,11.23Zm-.62,1.59a2.35,2.35,0,0,1-1.88,1.83H13a.45.45,0,0,1-.27-.06,1.59,1.59,0,0,1-.32-.12.87.87,0,0,1-.27-.14A3.67,3.67,0,0,1,11,11.65c0-.18,0-.65.56-.42a5.75,5.75,0,0,0,2.57.24C15.12,11.47,15.33,12.06,15.09,12.82Z" transform="translate(-1 -1.09)"/><path class="cls-1" d="M14,13.06c-.09.62-.38,1-1,.83a1.12,1.12,0,0,1-.92-1c0-.64.62-.53,1-.59C13.62,12.26,14.12,12.44,14,13.06Z" transform="translate(-1 -1.09)"/><path class="cls-1" d="M14,13.06c-.09.62-.38,1-1,.83a1.12,1.12,0,0,1-.92-1c0-.64.62-.53,1-.59C13.62,12.26,14.12,12.44,14,13.06Z" transform="translate(-1 -1.09)"/></svg>